<svg width="424" height="518" viewBox="0 0 424 518" xmlns="http://www.w3.org/2000/svg"><title>Hunterdon_County_New_Jersey_Incorporated_and_Unincorporated_areas_Lambertville_Highlighted</title><g stroke="#C7C7C7" fill="none" fill-rule="evenodd"><path fill="#EBEBEB" d="M263.066 1l18.047 15.046.13.13 7.585 6.411 9.677 8.504 3.924 3.533.784 2.355 11.247 11.905.392.262 1.7 1.832h.13l.524.654 2.354 1.308.392.131h1.046l3.531-.523 1.7.261h.13-.13.13l2.616 1.701 9.547-.654 3.4-.523 3.53 2.093 8.37 1.832.13.13.131.131 1.439.393 6.538 1.57 4.708 1.177 13.993 5.757 7.061 5.102.393.262.392 1.047.523 2.224 3.531 1.177 4.577 2.486.654.392 4.838-.13.916-.131h.261l1.177.523.654 2.224 2.354 2.486-.523 2.748 1.57 7.588 2.222.916 1.308 5.887-1.57 2.355-2.876 1.832-.131 4.317-2.354 4.84-.392 1.963 1.961 2.355 3.4 1.047-.523 4.056-2.092 1.7-.654 1.57-1.046 8.374-.785 1.308-6.015 4.58.392 2.223.916.916.392 2.617 1.308 2.224 6.538 4.71v2.486l-2.746 3.663-1.177 2.878v3.271l1.439 1.57-.524 3.27-1.176 2.094-2.747 1.57.393 4.187 1.177 1.177 7.454.131 3.007.654 1.962 4.448 4.054 6.28 2.746.524-6.408 11.382-1.83-1.047-1.44 2.486-3.007 5.495-1.046 2.093-1.177 1.963-.262 2.093 1.57 1.047-3.27 8.766-1.307 3.27 2.615 1.178 7.585 4.056-1.57 3.27-2.484 5.103-.915 1.832-.785 1.439-2.615 5.495-2.877 4.971-2.093.916-12.162 12.56-3.269 6.149-.13.392-2.093 4.056-1.7 3.663-8.762 17.924-11.377 24.335-4.184-.13-3.793-3.533-.784-1.178-3.924-4.317-6.8-3.925 12.816 31.923 5.23 12.821 3.532 8.766 16.738 41.343.785 1.962 3.27 8.243-7.586 1.962-26.023 4.841-12.293 2.355-5.361 1.177 2.354 15.177.13 1.047.262 1.046.654 4.318 2.092 13.737-14.908 1.962-1.57.131-8.107 1.309-24.193 3.794-9.677 1.439 1.308 4.317 1.177 3.01 1.961 5.494 4.708 13.869 2.616 7.588.261 1.308-1.961.262-15.17 1.831L229.458 517l-7.846-1.308-3.139-1.047-.915-.13-.654-.917-1.177-5.495-.523-8.765v-.131l-.262-2.486-2.223-8.635-4.315-13.083-.131-.392h-.13l-3.27-8.112-5.362-13.476v-.13l-1.307-2.355-1.57-1.178-1.961-1.57-10.724-5.102-.653-.262-2.354-1.832-.654-.785-2.223-2.485h-.262l-6.146-1.963-1.962.523-4.054 2.486-12.03 3.794-6.408 1.309-.785-.131-1.177-.131-1.177-.262-7.062-3.27-4.446-3.664-1.177-1.962-.392-.262-.262-.262-1.046-.915-1.177-1.047-.392-.13-2.092-.655-4.577-1.44-1.308-.392-.392-.523-1.962-1.832-2.223-5.495-1.177-12.167-3.923-17.139-2.616-7.85v-1.439l2.747-9.943-.654-4.187.261-4.84 3.008-4.58 1.83-5.233.262-5.756-.392-6.15-.392-1.962-2.093-12.952-.653-6.934.13-7.981v-2.224l.654-7.589-1.046-12.036-.785-3.533-1.177-3.009-8.5-6.934-7.323-9.289-7.323-9.289-3.4-3.401-.654-.524-.654-.261-.13-.131-8.24-3.01-5.492-2.878-4.315-.785-12.423-2.224-4.447.524-4.707 2.485-1.047 1.047-8.5 7.98-.261.132-3.531 1.308-4.97-.131-5.753-1.047-5.624-2.224-1.046-.392-.784-.654-1.177-.916-1.177-.916-.393-.393-4.315-5.102-1.57-2.355-.653-2.747v-.393L1 240.291l.392-2.617 3.27-5.625.523-3.794v-.785l-.262-1.57 1.177-.262 3.139-.262 3.53-1.962 2.747-4.318 2.092-.654 1.7-5.756 1.046-1.701 3.139-1.701 4.969-5.626 1.439-4.056-.654-2.616.392-.785 6.8-4.58 1.962 1.57 1.7-.13 1.7-2.878-.654-3.402 2.092-3.14 9.154-1.832 3.923-2.093 1.7-1.962 3.531-1.44.131-.13 3.008-1.309.392.131h1.439l1.046-.262 2.615-.523 4.054-2.224 1.308-1.57-.262-.785.262-1.7 1.961-2.487 9.285-4.448 2.485-2.878 3.008-4.972 5.492-2.224 3.008-2.617 2.223-4.317 2.354-2.486 1.7-.916 8.238-3.532 1.831-3.925 3.139-3.14 6.277-4.317 1.307-.393 3.793.916 4.185-5.364 4.446-.654 9.285-9.159 10.984-2.747 4.185 1.44 3.923-3.926.393-.392 6.538-6.673 2.877-1.57 4.446-1.308 1.831-.785 1.439-5.364 3.792-.131 2.746 1.047 1.439-.131 1.307-.654.523-1.309.262-.523 3.662-9.55 3.138-3.14 1.57-2.879 5.753-3.01 1.962-3.924 4.446-6.15 1.962-1.962 2.223-4.186.784-.916 4.839-5.887 1.177-2.094.523-1.7 3.008-3.533 1.57-1.308 2.091-.916 5.885-5.888.785-3.14 2.484-3.009 6.147-4.317 1.307-2.486-.653-9.158z"/><path fill="#EBEBEB" d="M351.391 153.696l6.392-9.418 2.739-4.316.391-.654 4.044-1.308 2.347.785 1.044.915 4.956 9.287-2.608 7.717-.653 4.185.522 1.308 1.565.523 2.479 2.616v1.44l1.043 3.138-2.478 5.363-3.261 3.531-.913 3.532 2.217 3.4 1.305.524 17.348-32.438 15.39 9.156v3.27l1.436 1.57-.522 3.27-1.174 2.092-2.74 1.57.392 4.185 1.174 1.177 7.435.131 3 .654 1.956 4.447 4.044 6.278 2.739.523-6.391 11.38-1.826-1.047-1.435 2.485-3 5.494-1.044 2.093-1.174 1.962-.26 2.092 1.565 1.047-3.261 8.763-1.304 3.27 2.608 1.177 7.565 4.055-1.565 3.27-2.478 5.1-.913 1.832-.783 1.439-2.608 5.493-2.87 4.97-2.087.916-12.13 12.556-3.261 6.148-.13.392-2.088 4.055-1.695 3.662-8.74 17.919L362.349 327l-4.174-.13-3.783-3.532-.782-1.177-3.913-4.317-6.783-3.924-4.304-1.7-9-2.223-6.392-1.832-4.565-.523-1.565-1.046-2.217-.262-.653-.13-4.174-3.532-.782-1.177-.783-2.224.13-1.57 1.175-.915.782-1.439.913-4.839-.26-1.831-.392-.654h-.26l-1.957-.262h-3.13l-.783-.392-4.435-5.101-.652-1.177-3.913-6.67-.392-1.44-.13.131-3.13-6.278.13-.13.13-1.832-.913-4.316v-.654l.913-.654.522-1.308-.13-1.7-.261-1.178-3.261-.915-4.565-.393-1.044-.784-.782-.916.26-1.308-.13-2.093-.913-3.27 6.522-1.177 15.782-2.616 3-4.316 2.609-3.924.522-.785 1.695-2.746 6.522-6.932 4.696-1.7.652.392 5.609-.654 6.52-3.925 1.957-1.7 4.565-4.84.652-1.439.13-5.493-3.39-7.586.39-10.856-1.173-13.865 1.826-2.485.26-.523 6-8.502.653-1.046 1.565-2.485zm-102.86 201.601l5.746 3.002 1.045 2.22.784 2.61.914 1.436 1.567 1.175 2.873 1.175 6.137 3.785 3.135 7.44 2.873 3.134 1.567 9.007 1.306 3.263.522.784-3.526-.392-10.055 3.002-5.485.653-1.959-.392-2.22 3.655-2.22 5.875-2.481 1.044-2.743 3.133-2.35 6.396-2.09 1.958-1.045.261 2.743 6.788-.914 2.48-5.746 11.749-6.66 10.443-8.228 5.874-7.966 7.963-.783 2.22-.784 5.743-1.697 1.175-1.306.522-1.176.522-3.264-8.093-5.354-13.446v-.13l-1.306-2.35-1.567-1.175.652-2.219.262-1.305v-1.306l.26-1.436.523-1.305-.392-1.697-3.003-1.305-2.481-2.22-3.657-.391-6.79-4.438-.392 1.044-1.437 1.436.13 3.263v2.35l-2.22-2.48h-.26l-6.138-1.958-1.96.522-4.047 2.48-12.015 3.786-6.399 1.305-.783-.13-1.175-.131-1.176-.261-7.052-3.264-4.44-3.655-1.175-1.958-.392-.26-.261-.262 30.689-40.728 25.987-35.506 20.895-28.327L222.936 310l5.354 9.92v2.873l.783 10.051 2.743 9.66 4.179 7.31 4.831-.261 1.437 4.308 1.959.914z"/><path fill="#EBEBEB" d="M273.58 241l2.751.13 5.241 1.57.262.917.132 1.962v.523l.917 3.27.13 2.094-.261 1.308.786.916 1.048.785 4.586.393 3.276.915.262 1.178.131 1.7-.524 1.309-.917.654v.654l.917 4.317-.13 1.832-.132.13 3.145 6.28.131-.13.393 1.439 3.931 6.672.655 1.177 4.456 5.102.786.393h3.145l1.965.261h.262l.393.655.262 1.831-.917 4.84-.786 1.44-1.18.916-.13 1.57.786 2.223.786 1.178 4.193 3.532.655.131 2.228.262 1.572 1.046 4.586.524 6.421 1.831 9.041 2.224 4.325 1.7L356 346.577l-1.572 1.963-1.704 1.308-16.117 2.486-5.373 3.401-4.324 1.832-.917.261-7.338 9.29-.655 3.139-2.883 8.242-3.145 3.532-5.503 3.925-14.02 14.26-1.573-2.616v-2.617L278.296 401l-1.048-6.803-.524-.785-1.31-3.27-1.573-9.028-2.882-3.14-3.145-7.456-6.159-3.794-2.883-1.178-1.572-1.177-.917-1.44-.786-2.616-1.049-2.224-5.765-3.009-4.324-.523-1.966-.916-1.441-4.317-4.849.261-4.193-7.326-2.751-9.68-.787-10.075v-2.878L223 309.684l29.352-39.771 5.503-7.458zm-146.091 48.224l31.915-17.091L176.216 263l29.683 61.19 2.101 4.305-21.014 28.312-26.137 35.487L129.984 433l-1.05-.913-1.182-1.044-.394-.13-2.102-.653-4.597-1.435-1.313-.391-.394-.522-1.97-1.827-2.233-5.48-1.182-12.133-3.94-17.091-2.627-7.828v-1.436l2.758-9.915-.657-4.175.263-4.827 3.02-4.567 1.84-5.219.262-5.74-.394-6.132-.394-1.957-2.101-12.917-.657-6.914.132-7.959 16.286-.13z"/><path fill="#EBEBEB" d="M355.522 346l5.217 12.8 3.522 8.752 16.696 41.277.782 1.959 3.261 8.23-7.565 1.958-25.957 4.833-12.26 2.352-5.348 1.175 2.347 15.152.13 1.045.262 1.045.652 4.31 2.087 13.716-14.87 1.96-1.565.13-8.087 1.306-1.956-3.396-1.305-7.315-.913-1.829-.913-.522-8.478-3.657-10.696-9.144-2.348-1.567-.782-1.698.782-2.221-.782-2.482 1.043-3.135-.26-2.612-2.61-5.617-2.869 2.351-1.435-2.09-.26-3.396-3.783 4.572-2.74 2.743-4.956 7.184-4.043 3.004-3.392 1.307-.26-3.005-1.827-17.111-4.695.784-5.87 2.482-4.304 2.22-1.435 1.698-2.739-6.792 1.043-.261 2.087-1.96 2.348-6.4 2.74-3.135 2.478-1.045 2.217-5.878 2.217-3.657 1.957.392 5.478-.654 10.044-3.004 3.521.392 1.044 6.792 12.522-6.008v2.612l1.565 2.613 13.956-14.238 5.479-3.919 3.13-3.526 2.87-8.23.652-3.135 7.304-9.274.913-.26 4.305-1.83 5.347-3.396 16.044-2.481 1.696-1.307zM262.652 1l18 14.995.13.13 7.566 6.39L298 30.99l3.913 3.521.783 2.347 11.217 11.866.391.26L316 50.81h.13l.522.652L319 52.766l-5.74 10.17-1.825 4.434v2.869l-.652 2.086-7.174-4.173.13-.13-2.609 2.347.653.522-3.13 3.52 4.564 5.477.13 1.304-6.782 4.042 1.565 2.738 4.305-2.738 3.391.522 1.044 3.26 1.695-.392-1.826 5.216L304 96.448l-2.609 1.564-1.304 5.216.13 2.738 2.479 3.912-14.74 4.955-25.695 8.737H262l-1.043.39-16.174 4.825-1.174 7.172-2.348.913-.652.13-1.696-2.347.652-2.869v-.39l.13-2.87-.912-1.434-2.218-2.086-2.478-.913-.391-.782-.13-.261-.392-.391-2.348-2.087-4.435-2.216-1.174-1.435-.26-.26 1.043-.913.13-5.737-.782-1.174 1.695-.913 3-.782 1.696-1.695.261-1.043-.522-1.956-2.478-3.13-1.435-3.129-2.087-8.345-2.348.652-5.478.39-5.739.392-1.696-5.607 1.044-5.607-5.609 3.52-6.782 7.042-2.87-.913 3.652-9.518 3.13-3.13 1.566-2.868 5.739-3 1.956-3.911 4.435-6.129 1.957-1.956 2.217-4.172.783-.913 4.826-5.868 1.174-2.086.522-1.695 3-3.52 1.565-1.305 2.087-.912 5.87-5.868.782-3.13 2.478-2.998 6.13-4.303 1.305-2.478-.652-9.127z"/><path fill="#EBEBEB" d="M303.023 111l3.007 5.087-.13 2.217.915 3 .784.522 1.307-.522 4.314 5.74 2.745 6.782 1.438 5.348 4.576-.261-.523 1.826L351 154.565l-1.83 2.478-1.569 2.479-.654 1.043-6.013 8.478-.261.522-1.83 2.478 1.176 13.827-.392 10.826 3.399 7.565-.131 5.478-.654 1.435-4.575 4.826-1.961 1.696-6.536 3.913-5.622.652-.653-.391-4.706 1.695-6.537 6.913-1.699 2.74-.523.782-2.614 3.913-3.007 4.304-15.818 2.61-6.536 1.173v-.522l-.131-1.956-.262-.913-5.229-1.566-2.745-.13h-2.876l-3.007.913-2.353-.652-1.176-2.087.261-4.565-1.438-10.174-1.438-2.478-7.451-1.044-3.137-1.435-.523-2.087.261-1.695 2.222-2.479.785-1.304-.131-1.565-4.575-6.13-1.7-.392-3.399-.13-.915-.652-.392-3.914 4.183-5.217v-5.609l3.007-.39.261-1.305 1.83-.392-.26-4.304 3.267-1.435-.261-5.608v-2.74h-1.046l.13-2.87h-.391l.13-2.738-4.837-.652-2.353.521-1.568.261h-2.353l-.785-.391-.915-.652-.915-.522-.523-.783 1.046-3.652.261-3.26-.653-1.305-3.007.391-2.353-15.26.654-1.827.915-1.304 1.568.26 1.961-2.477 1.7 2.347.653-.13 2.353-.913 2.092 7.565 4.314 4.435 2.353 2.217 7.452 2.348 1.699-1.043.654-.261.392-.261 1.438-.783 11.896-6.26v-3.914l-1.7-3.652-2.353-6.782-1.96-1.305-6.929-4.304-.654-.391 25.753-8.74zm-173.997 70.18l7.728 9.156 4.716 1.046 2.226.785 2.358.13 4.585-1.307h1.572l1.834.915 3.013 4.447 1.44 1.439 1.965.523 4.585-.523 7.204 4.055 6.943 3.139 2.489 2.877 5.108 8.11 1.834 1.438 2.227 1.831 3.799 5.624 5.37 4.578 3.537 5.1 1.441 1.44-1.572 1.961v.262l-4.847 3.008-5.108 8.894-3.144 4.578-1.834 1.57-6.811 4.708-4.323 1.57-.655.392-16.767 9.155-31.83 17.134-5.764-1.7-.524 1.046-10.48 1.439-.785-3.531-1.179-3.009-8.514-6.932-7.336-9.286 2.751-3.924.786.785 1.31-.262 1.834.393 1.703 1.962 2.75-.131 11.266-5.363v-.523l-1.048-1.57-.393-1.307.524-3.008 3.667-8.633 2.62-4.578 2.096-1.7-2.882-6.54-.655-1.57-.393-.784-1.44-3.27-7.86-4.708-7.728-12.818-.655-2.877 2.095-5.755-1.31-5.886-3.536-7.978-2.49-2.878-.523-.13-1.572-1.178-7.466-1.046-1.18-.785-2.488-3.139-.786-2.746-.262-1.047-.262-1.57 9.3-3.4 9.825-6.278-1.048 2.877.917 1.832 1.44.261 3.93-1.046 3.668.654 5.633 1.7 3.012 2.616.655.523 4.978 6.801z"/><path fill="#EBEBEB" d="M182.539 95.783l1.828-.783 1.045 8.874h7.053l6.008-.652 2.09-1.436 1.698 1.566 1.698.653 4.963-6.134 1.96 6.134 5.224 9.787 8.751 3.132.261.261 1.176 1.436 4.44 2.218 2.352 2.088.392.392.13.26.392.784-47.673 25.97-21.682 11.875L128.857 181l-4.702-1.958-4.963-6.786-.653-.522-3.004-2.61-5.617-1.696-3.657-.653-3.918 1.044-1.437-.26-.914-1.828 1.045-2.87-9.796 6.263-9.274 3.393-7.445 2.741-.522-3.524 1.306-1.566 1.96-.652 24.293-13.18 9.274-4.438-4.05-11.484 8.23-3.523 1.828-3.915 3.135-3.132 6.269-4.307 1.306-.391 3.788.913 4.18-5.35 4.44-.653 9.274-9.135 10.971-2.74 4.18 1.435 3.918-3.915.392-.391 6.53-6.656 2.874-1.566zM324.916 53l1.699.262h.13-.13.13l2.614 1.7 9.54-.653 3.399-.524 3.528 2.094 8.364 1.832.13.13.132.132 1.437.392 6.535 1.57 4.704 1.178 13.984 5.758 7.057 5.104.392.261.392 1.047.523 2.225 3.529 1.178 4.574 2.486.653.392 4.836-.13.914-.131h.262l1.176.523.654 2.225 2.352 2.486-.523 2.748 1.568 7.59 2.222.916L413 101.68l-1.568 2.355-2.875 1.832-.131 4.319-2.352 4.841-.393 1.963 1.96 2.356 3.399 1.047-.523 4.056-2.091 1.701-.654 1.57-1.045 8.376-.784 1.308-6.012 4.58.392 2.225.915.916.392 2.617 1.307 2.225 6.534 4.71v2.487l-2.744 3.664-1.176 2.879-15.421-9.16L372.748 187l-1.307-.523-2.222-3.403.915-3.533 3.267-3.533 2.483-5.365-1.045-3.141v-1.44l-2.483-2.617-1.568-.523-.523-1.309.653-4.187 2.614-7.72-4.966-9.292-1.046-.916-2.352-.785-4.051 1.308-.392.655-2.745 4.318-6.404 9.422-29.535-13.871.523-1.832-4.575.262-1.437-5.366-2.745-6.804-4.312-5.758-1.307.523-.784-.523-.915-3.01.13-2.225-3.005-5.103-2.483-3.926-.131-2.748 1.307-5.234 2.614-1.57 2.744-2.618 1.83-5.234 9.801-3.533.131-3.664-3.92-7.46-3.79-1.7.653-2.094v-2.88l1.83-4.448 5.75-10.207.392.13h1.045zm-94.501 135.727l.131-.392 6.44-6.55.658-.785h2.103l-.263 7.858 6.572-1.047v5.631l-4.206 5.24.394 3.929.92.654 3.417.131 1.709.393 4.6 6.156.132 1.572-.789 1.31-2.234 2.488-.263 1.703.526 2.095 3.154 1.441 7.492 1.048 1.446 2.488 1.445 10.216-.262 4.584 1.183 2.096 2.365.655 3.023-.917H273l-15.772 21.48-5.52 7.465-29.442 39.816L207.808 329l-2.103-4.322L176 263.25l.657-.393 4.338-1.571 6.834-4.715 1.84-1.572 3.155-4.584 5.126-8.906 4.863-3.013v-.262l1.577-1.964 2.366-3.275 5.389-4.322 1.314-1.964.526-2.358-.394-3.929 8.543-19.777 4.206-5.239z"/><path fill="#EBEBEB" d="M239.739 131.353v.394l-.654 2.888-1.961 2.495-1.57-.262-.914 1.313-.654 1.838 2.353 15.362 3.007-.394.654 1.313-.261 3.283-1.046 3.676.523.788-2.746.262v.788l-.13.92-1.047 7.877-2.222.132-3.661.525.261 5.12.785.132 5.752.657 1.7.13-.654.789-6.406 6.565-.13.394-4.054 6.696-4.183 5.252-8.499 19.827.393 3.939-.523 2.363-1.308 1.97-5.36 4.332L204.83 236l-1.438-1.444-3.53-5.121-5.36-4.596-3.792-5.646-2.222-1.838-1.83-1.444-5.1-8.14-2.484-2.89-6.93-3.15-7.19-4.071-4.576.525-1.961-.525-1.438-1.444-3.007-4.465-1.83-.919h-1.57l-4.576 1.313-2.353-.13-2.223-.789-4.706-1.05-7.714-9.191 35.823-18.908 21.704-11.948L234.247 124l2.484.92 2.223 2.1.915 1.444zM66.766 174.999l1.05-.261 2.626-.522 4.07-2.216.524 3.52 7.483-2.738.262 1.565.263 1.043.787 2.738 2.495 3.129 1.18.782 7.483 1.043 1.576 1.173.525.13 2.494 2.869 3.544 7.953 1.313 5.867-2.1 5.736.656 2.868 7.745 12.777 7.876 4.693 1.444 3.26.394.782.656 1.565 2.888 6.518-2.1 1.695-2.626 4.563-3.675 8.605-.525 2.999.393 1.303 1.05 1.565v.521l-11.289 5.346-2.756.13-1.707-1.956-1.838-.39-1.312.26-.788-.782 2.757-5.476 1.838-3.129-5.645-12.646h-14.44l-.919 5.736 1.444 5.867-8.27-2.999-5.513-2.868-4.332-.782-12.47-2.216-4.464.521-4.725 2.477-1.05 1.043-8.533 7.953-.263.13-3.544 1.304-4.988-.13-5.776-1.043-5.645-2.217-1.05-.39-.788-.653-1.181-.912-1.181-.913-.394-.39-4.332-5.086-1.575-2.346-.657-2.738v-.391L1 240.055l.394-2.607 3.282-5.606.525-3.781v-.782l-.263-1.565 1.182-.26 3.15-.261 3.544-1.956 2.757-4.302 2.1-.652 1.707-5.737 1.05-1.694 3.15-1.695 4.989-5.606 1.444-4.042-.657-2.607.394-.783 6.826-4.563 1.97 1.565 1.706-.13 1.706-2.869-.656-3.39 2.1-3.129 9.19-1.825 3.937-2.086 1.707-1.956 3.544-1.434.131-.13 3.02-1.304.393.13zm176.238 251.169l1.433-1.695 4.299-2.215 5.862-2.476 4.69-.782 1.823 17.072.26 2.997 3.388-1.303 4.038-2.997 4.95-7.168 2.736-2.737 3.778-4.56.26 3.387 1.433 2.086 2.866-2.346 2.605 5.604.26 2.606-1.041 3.128.781 2.476-.781 2.215.781 1.694 2.345 1.564 10.682 9.122 8.468 3.65.911.52.912 1.825 1.303 7.298 1.954 3.388-24.1 3.78-9.64 1.433 1.303 4.3 1.173 2.998 1.954 5.473 4.69 13.814 2.605 7.559.26 1.303-1.954.26-15.11 1.825L229.064 517l-7.816-1.303-3.126-1.043-.912-.13-.652-.912-1.172-5.474-.521-8.731 5.471-.521v-4.17l7.686-2.607v-1.043l-3.387-7.037-2.736-5.213-.52-.781-.522-1.695-6.643-12.12-1.303 5.604-.912 2.737.782-5.734.781-2.215 7.947-7.95 8.206-5.864 6.644-10.426 5.732-11.728zM100.62 148.763l2.234-4.342 2.365-2.5 1.708-.921L111 152.579l-9.328 4.474-24.438 13.29-1.971.657-.263-.79.263-1.71 1.97-2.5 9.329-4.474 2.496-2.894 3.022-5 5.519-2.237zM262.526 124l.648.392 6.866 4.31 1.944 1.307 2.332 6.793 1.684 3.657v3.92l-11.79 6.27-1.425.783-.388.262-.648.261-1.684 1.045-7.385-2.351-2.332-2.221-4.275-4.442L244 136.41l1.166-7.185 16.065-4.833 1.036-.392z"/><path fill="#EBEBEB" d="M213.032 469.574l1.29-5.574 6.581 12.056.516 1.685.516.778 2.71 5.185 3.355 7v1.037l-7.613 2.592v4.148l-5.42.519v-.13l-.257-2.463-2.194-8.555-4.258-12.963-.129-.389H208l1.161-.519 1.29-.518 1.678-1.167zm-16.975-381.28l.257-.528 2.829.924 6.686-7.127L211.357 78l-1.028 5.675L212 89.35l-.386 3.564-2.443 4.883-4.885 6.203-1.672-.66-1.671-1.584-2.057 1.452-5.915.66h-6.942L185 94.893l1.414-5.41 3.729-.133 2.7 1.056 1.414-.132 1.286-.66z"/><path fill="#EBEBEB" d="M224.943 117l-8.756-3.15-5.227-9.841-1.96-6.167 2.483-4.856.392-3.543 5.75-.393 5.489-.394 2.352-.656 2.09 8.398 1.438 3.15 2.483 3.149.523 1.968-.261 1.05-1.7 1.706-3.005.787-1.699.919.784 1.18-.13 5.774zm13.874 48l.916.516.916.645.786.387h2.356l1.57-.258 2.356-.516 4.843.645-.13 2.71h.392l-.13 2.839h1.046v2.709l.262 5.549-3.272 1.42.262 4.257-1.833.387-.262 1.29-3.01.388L239.34 189l.262-7.742h-2.094l-1.702-.129-5.759-.645-.785-.13-.262-5.031 3.665-.517 2.225-.129 1.047-7.742.131-.903v-.774zM86.825 242h8.531L101 254.565l-1.838 3.109-2.756 5.44L93.65 267l-7.35-9.197-3.412-3.368-.657-.518-.656-.259-.131-.13L80 247.7l.919-5.699h1.312zM309.048 88.609l-1.703.391-1.047-3.26-3.405-.523-4.322 2.74-1.571-2.74 6.81-4.043-.131-1.304-4.584-5.479 3.143-3.521-.655-.522 2.62-2.348-.132.13 7.203 4.174L315.07 74l3.93 7.435-.131 3.652zM128 289.677l-.133 22.194-16.469.129v-2.194l.665-7.483L111 290.452l10.625-1.42.531-1.032zm166.161 21.583l.258 2.218.516 4.696 1.29 10.565.259 2.87L297 335l-4.774-1.696-2.968-1.043h-6.193l-.775-3.391-.516-2.61-.774-1.825 1.032-5.478.387-7.044h.387l1.549-.522.516-.13 4.903 1.565 4.387-1.826zm21.53-147.783l6.309 3.349-.394 1.159-.526 3.09-3.154 1.031-.132.129-6.44 2.318-.263 2.447-2.365-.258-3.68-3.22-4.337-6.052-.395-3.735-.131-.258L299 160l12.486 1.16zM180 434.533l1.424-1.466.389-1.067 6.734 4.533 3.626.4 2.46 2.267 2.979 1.333.388 1.734-.518 1.333-.259 1.467v1.333l-.259 1.333-.647 2.267-1.943-1.6-10.619-5.2-.647-.267-2.331-1.866-.648-.8v-2.4z"/><path d="M263.066 1l18.047 15.046.13.13 7.585 6.411 9.677 8.504 3.924 3.533.784 2.355 11.247 11.905.392.262 1.7 1.832h.13l.524.654 2.354 1.308.392.131h1.046l3.531-.523 1.7.261h.13-.13.13l2.616 1.701 9.547-.654 3.4-.523 3.53 2.093 8.37 1.832.13.13.131.131 1.439.393 6.538 1.57 4.708 1.177 13.993 5.757 7.061 5.102.393.262.392 1.047.523 2.224 3.531 1.177 4.577 2.486.654.392 4.838-.13.916-.131h.261l1.177.523.654 2.224 2.354 2.486-.523 2.748 1.57 7.588 2.222.916 1.308 5.887-1.57 2.355-2.876 1.832-.131 4.317-2.354 4.84-.392 1.963 1.961 2.355 3.4 1.047-.523 4.056-2.092 1.7-.654 1.57-1.046 8.374-.785 1.308-6.015 4.58.392 2.223.916.916.392 2.617 1.308 2.224 6.538 4.71v2.486l-2.746 3.663-1.177 2.878v3.271l1.439 1.57-.524 3.27-1.176 2.094-2.747 1.57.393 4.187 1.177 1.177 7.454.131 3.007.654 1.962 4.448 4.054 6.28 2.746.524-6.408 11.382-1.83-1.047-1.44 2.486-3.007 5.495-1.046 2.093-1.177 1.963-.262 2.093 1.57 1.047-3.27 8.766-1.307 3.27 2.615 1.178 7.585 4.056-1.57 3.27-2.484 5.103-.915 1.832-.785 1.439-2.615 5.495-2.877 4.971-2.093.916-12.162 12.56-3.269 6.149-.13.392-2.093 4.056-1.7 3.663-8.762 17.924-11.377 24.335-4.184-.13-3.793-3.533-.784-1.178-3.924-4.317-6.8-3.925 12.816 31.923 5.23 12.821 3.532 8.766 16.738 41.343.785 1.962 3.27 8.243-7.586 1.962-26.023 4.841-12.293 2.355-5.361 1.177 2.354 15.177.13 1.047.262 1.046.654 4.318 2.092 13.737-14.908 1.962-1.57.131-8.107 1.309-24.193 3.794-9.677 1.439 1.308 4.317 1.177 3.01 1.961 5.494 4.708 13.869 2.616 7.588.261 1.308-1.961.262-15.17 1.831L229.458 517l-7.846-1.308-3.139-1.047-.915-.13-.654-.917-1.177-5.495-.523-8.765v-.131l-.262-2.486-2.223-8.635-4.315-13.083-.131-.392h-.13l-3.27-8.112-5.362-13.476v-.13l-1.307-2.355-1.57-1.178-1.961-1.57-10.724-5.102-.653-.262-2.354-1.832-.654-.785-2.223-2.485h-.262l-6.146-1.963-1.962.523-4.054 2.486-12.03 3.794-6.408 1.309-.785-.131-1.177-.131-1.177-.262-7.062-3.27-4.446-3.664-1.177-1.962-.392-.262-.262-.262-1.046-.915-1.177-1.047-.392-.13-2.092-.655-4.577-1.44-1.308-.392-.392-.523-1.962-1.832-2.223-5.495-1.177-12.167-3.923-17.139-2.616-7.85v-1.439l2.747-9.943-.654-4.187.261-4.84 3.008-4.58 1.83-5.233.262-5.756-.392-6.15-.392-1.962-2.093-12.952-.653-6.934.13-7.981v-2.224l.654-7.589-1.046-12.036-.785-3.533-1.177-3.009-8.5-6.934-7.323-9.289-7.323-9.289-3.4-3.401-.654-.524-.654-.261-.13-.131-8.24-3.01-5.492-2.878-4.315-.785-12.423-2.224-4.447.524-4.707 2.485-1.047 1.047-8.5 7.98-.261.132-3.531 1.308-4.97-.131-5.753-1.047-5.624-2.224-1.046-.392-.784-.654-1.177-.916-1.177-.916-.393-.393-4.315-5.102-1.57-2.355-.653-2.747v-.393L1 240.291l.392-2.617 3.27-5.625.523-3.794v-.785l-.262-1.57 1.177-.262 3.139-.262 3.53-1.962 2.747-4.318 2.092-.654 1.7-5.756 1.046-1.701 3.139-1.701 4.969-5.626 1.439-4.056-.654-2.616.392-.785 6.8-4.58 1.962 1.57 1.7-.13 1.7-2.878-.654-3.402 2.092-3.14 9.154-1.832 3.923-2.093 1.7-1.962 3.531-1.44.131-.13 3.008-1.309.392.131h1.439l1.046-.262 2.615-.523 4.054-2.224 1.308-1.57-.262-.785.262-1.7 1.961-2.487 9.285-4.448 2.485-2.878 3.008-4.972 5.492-2.224 3.008-2.617 2.223-4.317 2.354-2.486 1.7-.916 8.238-3.532 1.831-3.925 3.139-3.14 6.277-4.317 1.307-.393 3.793.916 4.185-5.364 4.446-.654 9.285-9.159 10.984-2.747 4.185 1.44 3.923-3.926.393-.392 6.538-6.673 2.877-1.57 4.446-1.308 1.831-.785 1.439-5.364 3.792-.131 2.746 1.047 1.439-.131 1.307-.654.523-1.309.262-.523 3.662-9.55 3.138-3.14 1.57-2.879 5.753-3.01 1.962-3.924 4.446-6.15 1.962-1.962 2.223-4.186.784-.916 4.839-5.887 1.177-2.094.523-1.7 3.008-3.533 1.57-1.308 2.091-.916 5.885-5.888.785-3.14 2.484-3.009 6.147-4.317 1.307-2.486-.653-9.158z"/></g></svg>