<?xml version="1.0" encoding="UTF-8"?>
<svg width="424px" height="518px" viewBox="0 0 424 518" version="1.1" xmlns="http://www.w3.org/2000/svg" xmlns:xlink="http://www.w3.org/1999/xlink">
    <!-- Generator: Sketch 60.1 (88133) - https://sketch.com -->
    <title>Hunterdon_County_New_Jersey_Incorporated_and_Unincorporated_areas_Lambertville_Highlighted</title>
    <desc>Created with Sketch.</desc>
    <g id="Page-1" stroke="none" stroke-width="1" fill="none" fill-rule="evenodd">
        <g id="Home" transform="translate(-972.000000, -3344.000000)" stroke="#C7C7C7">
            <g id="Group-13" transform="translate(0.000000, 2902.000000)">
                <g id="Hunterdon_County_New_Jersey_Incorporated_and_Unincorporated_areas_Lambertville_Highlighted" transform="translate(973.000000, 443.000000)">
                    <polygon id="019" fill="#EBEBEB" points="262.066316 0 280.112799 15.045639 280.112799 15.045639 280.24357 15.1764707 280.24357 15.1764707 287.828324 21.5872212 287.828324 21.5872212 297.505423 30.091278 301.428572 33.6237324 302.213201 35.978702 302.213201 35.978702 313.45956 47.8843816 313.45956 47.8843816 313.851875 48.1460449 313.851875 48.1460449 315.551906 49.9776879 315.551906 49.9776879 315.682678 49.9776879 315.682678 49.9776879 316.205764 50.6318461 316.205764 50.6318461 318.559653 51.9401625 318.559653 51.9401625 318.951968 52.0709942 319.998141 52.0709942 319.998141 52.0709942 323.528975 51.5476676 323.528975 51.5476676 325.229006 51.8093309 325.359777 51.8093309 325.229006 51.8093309 325.359777 51.8093309 325.359777 51.8093309 327.975209 53.5101423 337.521537 52.855984 337.521537 52.855984 340.921599 52.3326575 344.452433 54.4259638 352.821816 56.2576068 352.952588 56.3884384 353.083359 56.5192701 354.521847 56.911765 361.060428 58.4817447 361.060428 58.4817447 365.768206 59.6592295 365.768206 59.6592295 379.760769 65.4158218 386.822436 70.5182559 386.822436 70.5182559 387.214751 70.7799192 387.214751 70.7799192 387.607065 71.8265724 387.607065 71.8265724 388.130152 74.0507103 391.660986 75.2281951 396.237992 77.7139963 396.89185 78.1064913 401.7304 77.9756596 401.7304 77.9756596 402.645801 77.844828 402.645801 77.844828 402.907344 77.844828 402.907344 77.844828 404.084289 78.3681546 404.738147 80.5922925 407.092036 83.0780937 406.56895 85.8255582 408.138209 93.413791 410.361326 94.3296125 411.669042 100.217036 410.099783 102.572006 407.222808 104.403649 407.092036 108.721093 404.738147 113.561864 404.345832 115.524339 406.307406 117.879308 409.707468 118.925961 409.184382 122.981742 407.092036 124.682554 406.438178 126.252534 405.392005 134.625759 404.607375 135.934075 398.591881 140.513183 398.984196 142.737321 399.899597 143.653142 400.291912 146.269775 401.599628 148.493913 408.138209 153.203852 408.138209 155.689653 405.392005 159.352939 404.21506 162.231236 404.21506 165.502027 405.653548 167.072006 405.130462 170.342797 403.953517 172.436104 401.207313 174.006083 401.599628 178.192696 402.776573 179.370181 410.230555 179.501012 413.238302 180.155171 415.199876 184.603447 419.253796 190.883365 422 191.406692 422 191.406692 415.592191 202.789045 413.761388 201.742392 412.322901 204.228193 412.322901 204.228193 409.315153 209.723122 409.315153 209.723122 408.268981 211.816428 408.268981 211.816428 407.092036 213.778903 406.830493 215.872209 406.830493 215.872209 408.399752 216.918863 408.399752 216.918863 405.130462 225.684583 405.130462 225.684583 403.822746 228.955374 403.822746 228.955374 406.438178 230.132859 414.022932 234.18864 414.022932 234.18864 412.453672 237.459431 412.453672 237.459431 409.969012 242.561865 409.969012 242.561865 409.05361 244.393508 408.268981 245.832656 405.653548 251.327585 405.653548 251.327585 402.776573 256.299187 402.776573 256.299187 400.684227 257.215009 400.684227 257.215009 388.522467 269.774847 385.253176 275.923934 385.253176 275.923934 385.122405 276.316429 383.030059 280.37221 381.330028 284.035496 372.56833 301.959431 361.191199 326.294117 361.191199 326.294117 357.006508 326.163285 353.214131 322.630831 353.214131 322.630831 352.429501 321.453346 352.429501 321.453346 348.506353 317.135902 348.506353 317.135902 341.706229 313.210952 341.706229 313.210952 354.521847 345.133873 354.521847 345.133873 359.752712 357.955374 363.283545 366.721095 363.283545 366.721095 380.022312 408.063894 380.806942 410.026369 380.806942 410.026369 384.076232 418.268762 384.076232 418.268762 376.491478 420.231237 350.467927 425.072008 338.175395 427.426977 338.175395 427.426977 332.813759 428.604462 332.813759 428.604462 335.167648 443.780933 335.167648 443.780933 335.29842 444.827586 335.29842 444.827586 335.559963 445.874239 335.559963 445.874239 336.213821 450.191683 336.213821 450.191683 338.306167 463.929006 323.398203 465.89148 323.398203 465.89148 321.828944 466.022312 313.721104 467.330629 289.528355 471.124746 289.528355 471.124746 279.851255 472.563894 279.851255 472.563894 281.158972 476.881339 281.158972 476.881339 282.335916 479.890466 282.335916 479.890466 284.29749 485.385395 284.29749 485.385395 289.005268 499.25355 291.620701 506.841785 291.882244 508.150101 291.882244 508.150101 289.92067 508.411765 274.751163 510.243408 228.458011 516 220.611714 514.691684 217.473196 513.64503 216.557794 513.514199 216.557794 513.514199 215.903936 512.598377 214.726992 507.103448 214.203905 498.337728 214.203905 498.206896 213.942362 495.721095 211.719245 487.086207 207.403781 474.003042 207.27301 473.610547 207.142238 473.610547 203.872948 465.498986 198.511312 452.023326 198.511312 451.892495 197.203595 449.537525 195.634336 448.36004 193.672762 446.790061 182.949489 441.687626 182.295631 441.425963 179.941742 439.59432 179.287884 438.80933 179.287884 438.80933 177.064767 436.323529 176.803224 436.323529 170.656958 434.361054 168.695383 434.884381 164.641463 437.370182 152.610475 441.1643 146.202666 442.472616 145.418036 442.341785 144.241092 442.210953 143.064147 441.94929 136.00248 438.678499 131.556245 435.015213 130.379301 433.052738 129.986986 432.791075 129.725442 432.529411 128.67927 431.61359 127.502325 430.566937 127.11001 430.436105 125.017664 429.781947 120.440658 428.342799 119.132942 427.950304 118.740627 427.426977 116.779053 425.595334 114.555935 420.100405 113.378991 407.933062 109.455842 390.794117 106.84041 382.944218 106.84041 381.50507 109.586614 371.561865 108.932756 367.375253 109.194299 362.534482 112.202046 357.955374 114.032849 352.722109 114.294392 346.965516 113.902077 340.816429 113.509762 338.853954 111.417417 325.901622 110.763558 318.967545 110.89433 310.986814 110.89433 308.762676 111.548188 301.174441 110.502015 289.13793 109.717386 285.605476 108.540441 282.596348 100.040285 275.662271 92.7170744 266.373224 85.393864 257.084177 81.993802 253.682554 81.339944 253.159228 80.6860859 252.897565 80.5553143 252.766733 72.3167026 249.757605 66.8242948 246.879309 62.5088315 246.094319 50.0855282 243.870181 45.6392933 244.393508 40.9315152 246.879309 39.8853423 247.925962 31.3851874 255.906692 31.1236442 256.037524 27.5928106 257.34584 22.6234892 257.215009 16.8695382 256.168356 11.2463588 253.944218 10.2001859 253.551723 9.41555622 252.897565 8.23861169 251.981743 7.06166716 251.065922 6.66935232 250.673427 2.35388905 245.570993 0.784629685 243.216023 0.130771614 240.468558 0.130771614 240.076064 0.130771614 240.076064 0.130771614 240.076064 0 239.291074 0.392314842 236.674441 3.66160519 231.04868 4.18469165 227.254562 4.18469165 226.992899 4.18469165 226.469573 3.92314842 224.899593 3.92314842 224.899593 5.10009295 224.63793 8.23861169 224.376266 11.7694453 222.413792 14.5156492 218.096347 16.607995 217.442189 18.308026 211.685597 19.3541989 209.984785 22.4927176 208.283974 27.462039 202.658213 28.9005267 198.602432 28.2466686 195.9858 28.6389835 195.20081 35.4391074 190.621702 37.4006816 192.191682 39.1007126 192.06085 40.8007436 189.182554 40.1468855 185.780931 42.2392314 182.640972 51.3932443 180.809329 51.3932443 180.809329 55.3163928 178.716023 57.0164237 176.753548 60.5472573 175.3144 60.5472573 175.3144 60.6780289 175.183568 63.6857761 173.875252 64.0780909 174.006083 64.0780909 174.006083 65.5165787 174.006083 65.5165787 174.006083 66.5627516 173.74442 69.1781839 173.221094 73.2321039 170.996956 74.53982 169.426976 74.2782768 168.641986 74.53982 166.941175 76.5013942 164.455373 85.7861788 160.007098 88.2708395 157.128801 91.2785866 152.157199 96.7709944 149.933061 99.7787416 147.316428 102.001859 142.998984 104.355749 140.513183 106.05578 139.597361 114.294392 136.064907 116.125195 132.139957 119.263713 128.999998 125.540751 124.682554 126.848467 124.290059 130.640844 125.20588 134.825535 119.841783 139.27177 119.187625 148.556555 110.02941 159.541371 107.281945 163.726062 108.721093 167.649211 104.796144 168.041525 104.403649 174.580106 97.7312352 177.457082 96.1612555 181.903317 94.852939 181.903317 94.852939 183.734119 94.0679492 185.172607 88.7038544 188.964984 88.5730228 191.711188 89.6196759 193.149675 89.4888443 194.457391 88.834686 194.980478 87.5263696 194.980478 87.5263696 195.242021 87.003043 195.242021 87.003043 198.903626 77.452333 198.903626 77.452333 202.042145 74.3123736 203.611404 71.4340774 209.365355 68.4249496 211.32693 64.5000003 215.773165 58.3509131 215.773165 58.3509131 217.734739 56.3884384 217.734739 56.3884384 219.957856 52.2018258 219.957856 52.2018258 220.742486 51.2860043 220.742486 51.2860043 225.581036 45.3985804 226.75798 43.3052741 226.75798 43.3052741 227.281067 41.6044627 227.281067 41.6044627 230.288814 38.0720083 231.858073 36.7636919 233.950419 35.8478704 239.835142 29.9604464 240.619771 26.820487 243.104432 23.8113591 249.250698 19.4939149 250.558414 17.0081137 249.904556 7.84989862"></polygon>
                    <polygon id="62250" fill="#EBEBEB" points="350.391304 152.695502 356.782609 143.278201 359.521739 138.961938 359.521739 138.961938 359.913043 138.307958 363.956522 137 366.304348 137.784775 367.347826 138.700346 372.304348 147.986851 369.695652 155.703806 369.043478 159.889273 369.565217 161.197232 371.130435 161.720415 373.608696 164.336332 373.608696 165.775087 374.652174 168.914187 372.173913 174.276817 368.913043 177.808304 368 181.339792 370.217391 184.740484 371.521739 185.263668 388.869565 152.826298 404.26087 161.982007 404.26087 161.982007 404.26087 165.251903 405.695652 166.821453 405.173913 170.091349 404 172.184083 401.26087 173.753633 401.652174 177.9391 402.826087 179.116263 410.26087 179.247059 413.26087 179.901038 415.217391 184.348097 419.26087 190.626298 422 191.149481 422 191.149481 415.608696 202.52872 413.782609 201.482353 412.347826 203.967474 412.347826 203.967474 409.347826 209.4609 409.347826 209.4609 408.304348 211.553633 408.304348 211.553633 407.130435 213.515571 406.869565 215.608304 406.869565 215.608304 408.434783 216.654671 408.434783 216.654671 405.173913 225.417993 405.173913 225.417993 403.869565 228.687889 403.869565 228.687889 406.478261 229.865052 414.043478 233.919723 414.043478 233.919723 412.478261 237.189619 412.478261 237.189619 410 242.290657 410 242.290657 409.086957 244.121799 408.304348 245.560554 405.695652 251.053979 405.695652 251.053979 402.826087 256.024221 402.826087 256.024221 400.73913 256.939792 400.73913 256.939792 388.608696 269.496194 385.347826 275.643599 385.347826 275.643599 385.217391 276.035986 383.130435 280.090657 381.434783 283.752941 372.695652 301.671972 361.347826 326 361.347826 326 357.173913 325.869204 353.391304 322.337716 353.391304 322.337716 352.608696 321.160554 352.608696 321.160554 348.695652 316.844291 348.695652 316.844291 341.913043 312.920415 341.913043 312.920415 337.608696 311.220069 328.608696 308.99654 322.217391 307.165398 322.217391 307.165398 317.652174 306.642215 316.086957 305.595848 313.869565 305.334256 313.217391 305.20346 309.043478 301.671972 308.26087 300.49481 307.478261 298.27128 307.608696 296.70173 308.782609 295.786159 309.565217 294.347405 310.478261 289.507958 310.217391 287.676817 309.826087 287.022837 309.565217 287.022837 309.565217 287.022837 307.608696 286.761246 304.478261 286.761246 303.695652 286.368858 299.26087 281.26782 298.608696 280.090657 294.695652 273.420069 294.304348 271.981315 294.173913 272.112111 291.043478 265.83391 291.173913 265.703114 291.304348 263.871972 290.391304 259.555709 290.391304 258.90173 291.304348 258.247751 291.826087 256.939792 291.695652 255.239446 291.434783 254.062284 288.173913 253.146713 283.608696 252.754325 282.565217 251.96955 281.782609 251.053979 282.043478 249.746021 281.913043 247.653287 281 244.383391 281 244.383391 287.521739 243.206228 303.304348 240.590311 306.304348 236.274048 308.913043 232.350173 309.434783 231.565398 311.130435 228.818685 317.652174 221.886505 322.347826 220.186159 323 220.578547 328.608696 219.924567 335.130435 216.000692 337.086957 214.300346 341.652174 209.4609 342.304348 208.022145 342.434783 202.52872 339.043478 194.942561 339.434783 184.086505 338.26087 170.222145 340.086957 167.737024 340.347826 167.213841 346.347826 158.712111 347 157.665744 347 157.665744 348.565217 155.180623"></polygon>
                    <polygon id="17170" fill="#EBEBEB" points="247.531306 354.296677 253.277281 357.299051 254.322004 359.518196 255.105546 362.128956 256.019678 363.564873 257.586762 364.739715 260.45975 365.914557 266.597496 369.700158 269.731664 377.140823 272.604651 380.273734 274.171735 389.280854 275.477639 392.544304 276 393.327532 276 393.327532 272.474061 392.935918 262.418605 395.938291 256.93381 396.590981 254.974955 396.199367 252.754919 399.85443 250.534884 405.728639 250.534884 405.728639 248.053667 406.772943 245.31127 409.905854 242.960644 416.302215 240.871199 418.260285 239.826476 418.521361 242.568873 425.309335 242.568873 425.309335 241.654741 427.789557 235.908766 439.537975 229.248658 449.981013 221.021467 455.855222 213.055456 463.818038 212.271914 466.037184 211.488372 471.780854 211.488372 471.780854 209.790698 472.955696 208.484794 473.477848 207.309481 474 207.309481 474 204.044723 465.906646 198.690519 452.461234 198.690519 452.330696 197.384615 449.981013 195.817531 448.806171 195.817531 448.806171 196.470483 446.587025 196.731664 445.281646 196.731664 443.976266 196.992844 442.540348 197.515206 441.234968 197.123435 439.537975 194.119857 438.232595 191.63864 436.013449 187.982111 435.621835 181.191413 431.183544 180.799642 432.227848 179.363148 433.663766 179.363148 433.663766 179.493739 436.927215 179.493739 437.710443 179.493739 439.276899 179.493739 439.276899 177.273703 436.796677 177.012522 436.796677 170.874776 434.838608 168.915921 435.360759 164.867621 437.840981 152.853309 441.626582 146.454383 442.931962 145.670841 442.801424 144.495528 442.670886 143.320215 442.40981 136.268336 439.146361 131.828265 435.491297 130.652952 433.533228 130.261181 433.272152 130 433.011076 130 433.011076 160.68873 392.283228 186.676208 356.776899 207.570662 328.450158 207.570662 328.450158 221.935599 309 221.935599 309 227.289803 318.920886 227.289803 321.792722 228.073345 331.844146 230.815742 341.503956 234.994633 348.814082 239.826476 348.553006 241.26297 352.860759 243.221825 353.774525"></polygon>
                    <polygon id="61920" fill="#EBEBEB" points="272.57931 240 275.331034 240.130826 280.572414 241.700736 280.834483 242.616517 280.965517 244.578904 280.965517 245.102208 280.965517 245.102208 281.882759 248.372854 282.013793 250.466067 281.751724 251.774325 282.537931 252.690106 283.586207 253.475061 288.172414 253.867539 291.448276 254.78332 291.710345 255.960752 291.841379 257.661488 291.317241 258.969747 290.4 259.623876 290.4 260.278005 291.317241 264.595258 291.186207 266.426819 291.055172 266.557645 294.2 272.837285 294.331034 272.70646 294.724138 274.145544 298.655172 280.817661 299.310345 281.995094 303.765517 287.097302 304.551724 287.489779 307.696552 287.489779 309.662069 287.751431 309.662069 287.751431 309.924138 287.751431 310.317241 288.40556 310.57931 290.237122 309.662069 295.077678 308.875862 296.516762 307.696552 297.432543 307.565517 299.002453 308.351724 301.226492 309.137931 302.403925 313.331034 305.936222 313.986207 306.067048 316.213793 306.3287 317.786207 307.375307 322.372414 307.89861 322.372414 307.89861 328.793103 309.730172 337.834483 311.954211 342.158621 313.654947 342.158621 313.654947 355 345.576451 355 345.576451 353.427586 347.538839 351.724138 348.847097 335.606897 351.332788 330.234483 354.73426 325.910345 356.565822 324.993103 356.827473 324.993103 356.827473 317.655172 366.116108 317 369.255928 314.117241 377.497956 310.972414 381.030253 305.468966 384.955029 291.448276 399.215045 291.448276 399.215045 289.875862 396.598528 289.875862 396.598528 289.875862 393.982011 289.875862 393.982011 277.296552 400 276.248276 393.197056 276.248276 393.197056 275.724138 392.412101 274.413793 389.141455 272.841379 380.114473 269.958621 376.974652 266.813793 369.51758 260.655172 365.72363 257.772414 364.546198 256.2 363.368765 255.282759 361.929681 254.496552 359.313164 253.448276 357.089125 247.682759 354.080131 247.682759 354.080131 243.358621 353.556827 241.393103 352.641047 239.951724 348.323794 235.103448 348.585446 230.910345 341.259199 228.158621 331.578087 227.372414 321.504497 227.372414 318.626329 222 308.683565 222 308.683565 251.351724 268.91251 256.855172 261.455437"></polygon>
                    <polygon id="37065" fill="#EBEBEB" points="126.488947 288.224098 158.404421 271.132771 175.215865 262 175.215865 262 204.89857 323.189563 207 327.495012 207 327.495012 185.985696 355.8066 159.849155 391.293937 128.984395 432 128.984395 432 127.93368 431.086723 126.751625 430.042978 126.357607 429.91251 124.256177 429.260169 119.659298 427.825019 118.345904 427.433615 117.951886 426.911742 115.981795 425.085188 113.749025 419.605526 112.56697 407.471988 108.626788 390.38066 106 382.552571 106 381.117421 108.758127 371.201842 108.10143 367.026861 108.364109 362.19954 111.384915 357.633154 113.223667 352.414428 113.486346 346.67383 113.092328 340.541827 112.698309 338.584804 110.596879 325.668457 109.940182 318.753645 110.071521 310.795088 110.071521 310.795088 126.357607 310.66462"></polygon>
                    <polygon id="18820" fill="#EBEBEB" points="354.521739 345 359.73913 357.800857 363.26087 366.552463 363.26087 366.552463 379.956522 407.828694 380.73913 409.788009 380.73913 409.788009 384 418.017131 384 418.017131 376.434783 419.976445 350.478261 424.809422 338.217391 427.1606 338.217391 427.1606 332.869565 428.336188 332.869565 428.336188 335.217391 443.488223 335.217391 443.488223 335.347826 444.533191 335.347826 444.533191 335.608696 445.578158 335.608696 445.578158 336.26087 449.888651 336.26087 449.888651 338.347826 463.603854 323.478261 465.563169 323.478261 465.563169 321.913043 465.69379 313.826087 467 313.826087 467 311.869565 463.603854 310.565217 456.289079 309.652174 454.460385 308.73913 453.937901 308.73913 453.937901 300.26087 450.280514 289.565217 441.137045 287.217391 439.569593 287.217391 439.569593 286.434783 437.87152 287.217391 435.650964 286.434783 433.169165 287.478261 430.034261 287.217391 427.421842 284.608696 421.805139 281.73913 424.156317 280.304348 422.066381 280.304348 422.066381 280.043478 418.670236 276.26087 423.24197 273.521739 425.985011 268.565217 433.169165 264.521739 436.173448 261.130435 437.479657 260.869565 434.475375 259.043478 417.364026 254.347826 418.147752 248.478261 420.62955 244.173913 422.850107 242.73913 424.54818 242.73913 424.54818 240 417.755889 241.043478 417.494647 243.130435 415.535332 245.478261 409.134904 248.217391 406 250.695652 404.955032 250.695652 404.955032 252.913043 399.077088 255.130435 395.4197 257.086957 395.811563 262.565217 395.158458 272.608696 392.154176 276.130435 392.546039 276.130435 392.546039 277.173913 399.33833 289.695652 393.329764 289.695652 393.329764 289.695652 395.942184 289.695652 395.942184 291.26087 398.554604 291.26087 398.554604 305.217391 384.316916 310.695652 380.398287 313.826087 376.87152 316.695652 368.642398 317.347826 365.507495 324.652174 356.233405 324.652174 356.233405 325.565217 355.972163 329.869565 354.143469 335.217391 350.747323 351.26087 348.265525 352.956522 346.959315"></polygon>
                    <polygon id="39660" fill="#EBEBEB" points="261.652174 0 279.652174 14.9952064 279.652174 14.9952064 279.782609 15.1255995 279.782609 15.1255995 287.347826 21.5148614 287.347826 21.5148614 297 29.9904128 300.913043 33.5110265 301.695652 35.8581023 301.695652 35.8581023 312.913043 47.7238744 312.913043 47.7238744 313.304348 47.9846606 313.304348 47.9846606 315 49.8101639 315 49.8101639 315.130435 49.8101639 315.130435 49.8101639 315.652174 50.4621294 315.652174 50.4621294 318 51.7660604 318 51.7660604 312.26087 61.9367222 310.434783 66.3700876 310.434783 69.2387357 309.782609 71.3250253 309.782609 71.3250253 302.608696 67.1524462 302.73913 67.0220531 300.130435 69.3691288 300.782609 69.8907012 297.652174 73.4113149 302.217391 78.8878251 302.347826 80.1917561 295.565217 84.2339422 297.130435 86.9721973 301.434783 84.2339422 304.826087 84.7555146 305.869565 88.0153421 307.565217 87.6241628 307.565217 87.6241628 305.73913 92.8398841 305.73913 92.8398841 303 95.4477461 300.391304 97.0124633 299.086957 102.228187 299.217391 104.966442 301.695652 108.878235 301.695652 108.878235 286.956522 113.833173 261.26087 122.569511 261.26087 122.569511 261 122.569511 261 122.569511 259.956522 122.96069 243.782609 127.785235 243.782609 127.785235 242.608696 134.956855 242.608696 134.956855 242.608696 134.956855 240.26087 135.869607 239.608696 136 237.913043 133.652924 237.913043 133.652924 238.565217 130.784276 238.565217 130.393097 238.565217 130.393097 238.695652 127.524449 237.782609 126.090124 235.565217 124.003835 233.086957 123.091083 233.086957 123.091083 232.695652 122.308725 232.565217 122.047938 232.173913 121.656759 229.826087 119.570469 225.391304 117.353787 224.217391 115.919463 223.956522 115.658677 223.956522 115.658677 225 114.745925 225.130435 109.008628 224.347826 107.835091 226.043478 106.922339 229.043478 106.13998 230.73913 104.44487 231 103.401725 230.478261 101.445829 228 98.3163943 226.565217 95.1869599 224.478261 86.8418042 222.130435 87.4937697 216.652174 87.884949 210.913043 88.2761283 210.913043 88.2761283 209.217391 82.669225 210.26087 77.0623217 204.652174 80.5829354 197.869565 87.6241628 195 86.7114111 195 86.7114111 198.652174 77.1927148 198.652174 77.1927148 201.782609 74.0632804 203.347826 71.1946322 209.086957 68.195591 211.043478 64.283798 215.478261 58.1553223 215.478261 58.1553223 217.434783 56.1994258 217.434783 56.1994258 219.652174 52.0268466 219.652174 52.0268466 220.434783 51.1140949 220.434783 51.1140949 225.26087 45.2464055 226.434783 43.1601159 226.434783 43.1601159 226.956522 41.4650056 226.956522 41.4650056 229.956522 37.9443919 231.521739 36.6404609 233.608696 35.7277092 239.478261 29.8600197 240.26087 26.7305854 242.73913 23.7315441 248.869565 19.4285718 250.173913 16.9511029 249.521739 7.82358596"></polygon>
                    <polygon id="13750" fill="#EBEBEB" points="302.023464 110 305.030168 115.086957 304.899441 117.304348 305.814525 120.304348 305.814525 120.304348 306.598883 120.826087 307.906145 120.304348 312.220112 126.043478 314.965363 132.826087 316.403352 138.173913 316.403352 138.173913 320.978771 137.913043 320.455866 139.73913 350 153.565217 350 153.565217 348.169832 156.043478 346.601117 158.521739 346.601117 158.521739 345.947486 159.565217 339.934078 168.043478 339.672626 168.565217 337.842458 171.043478 339.018994 184.869565 338.626816 195.695652 342.025698 203.26087 341.894972 208.73913 341.241341 210.173913 336.665922 215 334.705028 216.695652 328.168715 220.608696 322.547486 221.26087 321.893855 220.869565 317.187709 222.565217 310.651397 229.478261 308.951955 232.217391 308.42905 233 305.814525 236.913043 302.807821 241.217391 286.989944 243.826087 280.453631 245 280.453631 245 280.453631 244.478261 280.322905 242.521739 280.061453 241.608696 274.832402 240.043478 272.087151 239.913043 272.087151 239.913043 269.211173 239.913043 266.204469 240.826087 263.851397 240.173913 262.67486 238.086957 262.936313 233.521739 261.498324 223.347826 260.060335 220.869565 252.608939 219.826087 249.471508 218.391304 248.948603 216.304348 249.210056 214.608696 251.432402 212.130435 252.21676 210.826087 252.086034 209.26087 247.510615 203.130435 245.811173 202.73913 242.412291 202.608696 241.497207 201.956522 241.105028 198.043478 245.288268 192.826087 245.288268 187.217391 245.288268 187.217391 248.294972 186.826087 248.556425 185.521739 250.386592 185.130435 250.12514 180.826087 253.393296 179.391304 253.131844 173.782609 253.131844 172.73913 253.131844 171.043478 253.131844 171.043478 252.086034 171.043478 252.21676 168.173913 251.824581 168.173913 251.955307 165.434783 247.118436 164.782609 244.765363 165.304348 243.196648 165.565217 240.843575 165.565217 240.843575 165.565217 240.059218 165.173913 239.144134 164.521739 238.22905 164 238.22905 164 237.706145 163.217391 238.751955 159.565217 239.013408 156.304348 238.359777 155 235.353073 155.391304 233 140.130435 233.653631 138.304348 234.568715 137 236.13743 137.26087 238.098324 134.782609 238.098324 134.782609 239.797765 137.130435 240.451397 137 242.804469 136.086957 242.804469 136.086957 242.804469 136.086957 244.896089 143.652174 249.210056 148.086957 251.563128 150.304348 259.014525 152.652174 260.713966 151.608696 261.367598 151.347826 261.759777 151.086957 263.197765 150.304348 275.093855 144.043478 275.093855 140.130435 273.394413 136.478261 271.041341 129.695652 269.080447 128.391304 262.151955 124.086957 261.498324 123.695652 261.498324 123.695652 287.251397 114.956522"></polygon>
                    <polygon id="00550" fill="#EBEBEB" points="128.02556 180.180227 135.753994 189.335736 140.469649 190.38208 142.696486 191.166838 145.054314 191.297631 149.638978 189.989701 151.210863 189.989701 153.044729 190.905252 156.057508 195.352214 157.498403 196.790937 159.463259 197.314109 164.047924 196.790937 171.252397 200.84552 178.194888 203.984552 180.683706 206.861998 185.792332 214.971164 187.626198 216.409887 189.853035 218.240989 193.651757 223.865088 199.022364 228.442842 202.559105 233.543769 204 234.982492 204 234.982492 202.428115 236.944387 202.428115 237.205973 202.428115 237.205973 197.58147 240.214212 192.472844 249.108136 189.329074 253.685891 187.495208 255.255407 180.683706 259.963955 176.361023 261.533471 175.706071 261.92585 175.706071 261.92585 158.939298 271.081359 127.108627 288.215242 127.108627 288.215242 121.345049 286.514933 120.821087 287.561277 110.341854 289 110.341854 289 109.555912 285.468589 108.376998 282.46035 99.8626196 275.528321 92.5271564 266.242019 92.5271564 266.242019 95.2779551 262.318229 95.2779551 262.318229 96.0638976 263.102987 97.3738017 262.841401 99.2076675 263.23378 100.910543 265.195675 103.661342 265.064882 114.926519 259.702369 114.926519 259.179197 113.878595 257.609681 113.485624 256.301751 114.009586 253.293512 117.677317 244.661174 120.297125 240.083419 122.392972 238.38311 122.392972 238.38311 119.511183 231.84346 119.511183 231.84346 118.856231 230.273944 118.46326 229.489186 117.022365 226.219361 109.16294 221.510814 101.434505 208.6931 101.434505 208.6931 100.779553 205.815654 102.875399 200.060762 101.565495 194.175077 98.0287538 186.196704 95.5399359 183.319258 95.0159743 183.188465 93.4440893 182.011329 85.9776357 180.964985 84.798722 180.180227 82.3099041 177.041195 81.5239617 174.294542 81.2619808 173.248198 81 171.678682 81 171.678682 90.3003194 168.278064 100.1246 162 99.0766771 164.877446 99.99361 166.708548 101.434505 166.970134 105.364218 165.92379 109.03195 166.577755 114.664538 168.278064 117.677317 170.893924 118.332269 171.417096 123.309905 178.218332"></polygon>
                    <polygon id="05650" fill="#EBEBEB" points="181.538776 94.7830046 183.367347 94 183.367347 94 184.412245 102.874052 191.465306 102.874052 197.47347 102.221548 199.563266 100.786039 201.261225 102.352049 202.959184 103.004552 207.922449 96.8710167 207.922449 96.8710167 209.881633 103.004552 215.106123 112.792109 223.857143 115.924127 223.857143 115.924127 224.118367 116.185129 225.293878 117.620637 229.734694 119.83915 232.085714 121.927162 232.477551 122.318665 232.608163 122.579666 233 123.362671 233 123.362671 185.326531 149.332322 163.644899 161.207891 127.857144 180 127.857144 180 123.155103 178.042489 118.191838 171.256449 117.538776 170.734446 114.534695 168.124431 108.918368 166.427921 105.261226 165.775417 101.342857 166.819423 99.9061222 166.558422 98.9918365 164.731411 100.036734 161.860395 90.2408162 168.124431 80.9673469 171.517451 80.9673469 171.517451 73.522449 174.257967 73 170.734446 73 170.734446 74.3061224 169.168437 74.3061224 169.168437 76.2653061 168.515933 100.559183 155.335357 109.832654 150.898331 105.783675 139.414264 105.783675 139.414264 114.012246 135.890744 115.840817 131.975721 118.975511 128.843703 125.244899 124.537178 126.551021 124.145675 130.338776 125.059181 134.518368 119.708649 138.959184 119.056146 148.232654 109.921093 159.204082 107.180577 163.383674 108.616085 167.302041 104.701062 167.693878 104.30956 174.22449 97.6540212 177.09796 96.0880121"></polygon>
                    <polygon id="72510" fill="#EBEBEB" points="323.915986 52 325.614936 52.2617188 325.745624 52.2617188 325.614936 52.2617188 325.745624 52.2617188 325.745624 52.2617188 328.359393 53.9628907 337.89965 53.3085938 337.89965 53.3085938 341.29755 52.7851563 344.826138 54.8789063 353.190198 56.7109376 353.320887 56.841797 353.451575 56.9726563 354.889148 57.3652345 361.423571 58.935547 361.423571 58.935547 366.128355 60.1132814 366.128355 60.1132814 380.112019 65.871094 387.169195 70.9746097 387.169195 70.9746097 387.56126 71.2363285 387.56126 71.2363285 387.953326 72.2832035 387.953326 72.2832035 388.476079 74.5078129 392.004667 75.6855473 396.578763 78.1718755 397.232205 78.5644536 402.067678 78.4335943 402.067678 78.4335943 402.982497 78.3027349 402.982497 78.3027349 403.243874 78.3027349 403.243874 78.3027349 404.42007 78.8261724 405.073512 81.0507818 407.425904 83.53711 406.903151 86.2851569 408.471412 93.8749982 410.693116 94.7910138 412 100.679686 410.431739 103.035155 407.556593 104.867186 407.425904 109.185545 405.073512 114.027342 404.681447 115.990233 406.641774 118.345702 410.039673 119.392577 409.516919 123.449218 407.425904 125.150389 406.772462 126.720702 405.726954 135.095702 404.942824 136.404296 398.931155 140.984374 399.323221 143.208984 400.23804 144.124999 400.630105 146.742187 401.936989 148.966796 408.471412 153.677734 408.471412 156.164062 405.726954 159.828124 404.550758 162.707031 404.550758 162.707031 389.129522 153.546874 371.747958 186 370.441074 185.476562 368.21937 182.074219 369.134189 178.541015 372.4014 175.007812 374.884481 169.642578 373.838973 166.501953 373.838973 165.0625 371.355893 162.445312 369.787631 161.921875 369.264877 160.613281 369.91832 156.425781 372.532089 148.705077 367.565928 139.414062 366.52042 138.498046 364.168028 137.71289 360.116686 139.021483 359.724621 139.67578 359.724621 139.67578 356.980163 143.99414 350.576429 153.416015 350.576429 153.416015 321.04084 139.544921 321.563594 137.71289 316.989498 137.974608 316.989498 137.974608 315.551925 132.609374 312.807468 125.804686 308.494749 120.046874 307.187865 120.570311 306.403734 120.046874 306.403734 120.046874 305.488915 117.037108 305.619603 114.812499 302.613769 109.708983 302.613769 109.708983 300.130688 105.783202 300 103.035155 301.306884 97.8007795 303.920653 96.230467 306.665111 93.6132794 306.665111 93.6132794 308.494749 88.378907 308.494749 88.378907 318.296383 84.8457038 318.427071 81.1816412 314.506418 73.7226567 310.716453 72.0214848 310.716453 72.0214848 311.369895 69.9277347 311.369895 67.0488284 313.199533 62.5996096 318.949825 52.3925781 318.949825 52.3925781 319.34189 52.5234375 320.387398 52.5234375 320.387398 52.5234375"></polygon>
                    <polygon id="24870" fill="#EBEBEB" points="229.414634 187.727434 229.54607 187.334513 235.98645 180.785841 236.643631 180 236.643631 180 238.746612 180 238.48374 187.858407 245.055556 186.810619 245.055556 186.810619 245.055556 192.442478 240.849593 197.681416 241.243902 201.610619 242.163957 202.265487 245.581301 202.39646 247.289973 202.789381 251.890244 208.945133 252.02168 210.516814 251.233062 211.826549 248.998645 214.315044 248.735772 216.017699 249.261518 218.113274 252.415989 219.553982 259.907859 220.60177 261.353659 223.090265 262.799458 233.306195 262.536585 237.890265 263.719512 239.985841 266.085366 240.640708 269.108401 239.723894 272 239.723894 272 239.723894 256.227642 261.20354 250.707317 268.669027 221.265583 308.484956 221.265583 308.484956 206.807588 328 206.807588 328 204.704607 323.677876 175 262.251327 175 262.251327 175.657182 261.858407 179.99458 260.286726 186.829268 255.571681 188.669377 254 191.823848 249.415929 196.949864 240.509735 201.813008 237.497345 201.813008 237.497345 201.813008 237.235398 203.390244 235.270796 203.390244 235.270796 205.756098 231.99646 211.144986 227.674336 212.45935 225.709735 212.985095 223.352212 212.590786 219.423009 221.134146 199.646018 225.340108 194.40708"></polygon>
                    <polygon id="74420" fill="#EBEBEB" points="238.738516 130.352872 238.738516 130.746776 238.084806 133.635404 238.084806 133.635404 236.123675 136.130129 234.55477 135.867526 233.639576 137.180539 232.985866 139.018757 235.339223 154.381008 238.34629 153.987104 239 155.300117 238.738516 158.582649 237.69258 162.259086 238.215548 163.046893 238.215548 163.046893 235.469965 163.309496 235.469965 164.097304 235.339223 165.016413 234.293286 172.89449 232.070671 173.025791 228.409894 173.550996 228.409894 173.550996 228.671378 178.671747 228.671378 178.671747 229.45583 178.803048 229.45583 178.803048 235.208481 179.459555 236.908127 179.590856 236.908127 179.590856 236.254417 180.378664 229.848057 186.943728 229.717314 187.337632 229.717314 187.337632 225.664311 194.033998 221.480565 199.286049 212.982332 219.112544 213.374558 223.051583 212.85159 225.415006 211.54417 227.384525 206.183746 231.717468 203.830389 235 203.830389 235 202.392226 233.555686 198.862191 228.434936 193.501767 223.83939 189.710247 218.193435 187.487633 216.355217 185.657244 214.910903 180.558304 206.770223 178.074205 203.881594 171.144876 200.730363 163.954064 196.660023 159.378092 197.185229 157.416961 196.660023 155.978799 195.215709 152.971731 190.751465 151.141343 189.832356 149.572438 189.832356 144.996466 191.145369 142.64311 191.014068 140.420495 190.22626 135.713781 189.17585 128 179.98476 128 179.98476 163.823322 161.077374 185.526502 149.128957 233.24735 123 233.24735 123 235.731449 123.919109 237.954064 126.01993 238.869258 127.464244"></polygon>
                    <polygon id="32460" fill="#EBEBEB" points="65.7662746 173.998613 66.8164347 173.737864 69.4418349 173.216366 73.5112052 171 73.5112052 171 74.0362852 174.520111 81.5186758 171.782247 81.5186758 171.782247 81.7812158 173.346741 82.0437558 174.389736 82.8313759 177.127601 85.325506 180.256588 86.5069361 181.038835 93.9893266 182.081831 95.5645667 183.255201 96.0896468 183.385576 98.583777 186.253814 102.128067 194.206657 103.440767 200.073509 101.340447 205.809986 101.996797 208.678225 101.996797 208.678225 109.741729 221.454924 117.61793 226.148405 119.0619 229.407767 119.45571 230.190014 120.11206 231.754508 120.11206 231.754508 123 238.273232 123 238.273232 120.89968 239.9681 118.27428 244.531207 114.598719 253.135922 114.073639 256.134535 114.467449 257.43828 115.517609 259.002774 115.517609 259.524272 104.228387 264.869626 101.471717 265 99.765207 263.044383 97.9274269 262.653259 96.6147268 262.914008 95.8271068 262.131761 95.8271068 262.131761 98.583777 256.656033 100.421557 253.527046 94.7769467 240.880721 86.2443961 240.880721 86.2443961 240.880721 81.6499458 240.880721 80.3372457 240.880721 79.4183556 246.617198 80.8623257 252.48405 80.8623257 252.48405 72.5923151 249.485437 67.0789747 246.617198 62.7470644 245.834951 50.2764136 243.618585 45.8132332 244.140083 41.0875129 246.617198 40.0373528 247.660194 31.5048022 255.613037 31.2422622 255.743412 27.697972 257.047157 22.7097116 256.916782 16.9338312 255.873786 11.2892208 253.65742 10.2390607 253.266297 9.45144067 252.614424 8.27001058 251.701803 7.0885805 250.789182 6.69477047 250.398058 2.36286017 245.313454 0.787620056 242.966713 0.131270009 240.228849 0.131270009 239.837725 0.131270009 239.837725 0.131270009 239.837725 0 239.055479 0.393810028 236.447989 3.67556026 230.841886 4.2006403 227.061026 4.2006403 226.800277 4.2006403 226.278779 3.93810028 224.714286 3.93810028 224.714286 5.11953036 224.453537 8.27001058 224.192788 11.8143008 222.237171 14.570971 217.934813 16.6712912 217.28294 18.3778013 211.546463 19.4279614 209.851595 22.5784416 208.156727 27.5667019 202.550624 29.010672 198.509015 28.354322 195.901526 28.748132 195.119279 35.5741725 190.556172 37.5432227 192.120666 39.2497328 191.990291 40.9562429 189.122053 40.2998928 185.732316 42.400213 182.603329 51.5891136 180.778086 51.5891136 180.778086 55.5272139 178.692094 57.233724 176.736477 60.7780143 175.302358 60.7780143 175.302358 60.9092843 175.171983 63.9284945 173.868239 64.3223045 173.998613 64.3223045 173.998613"></polygon>
                    <polygon id="78230" fill="#EBEBEB" points="242.003831 425.167553 243.436782 423.473404 247.735632 421.257979 253.597701 418.781915 258.287356 418 260.111111 435.071809 260.371648 438.069149 263.758621 436.765957 267.796935 433.768617 272.747126 426.601064 275.482759 423.864362 279.260536 419.303191 279.521073 422.691489 279.521073 422.691489 280.954023 424.776596 283.819923 422.430851 286.425287 428.034574 286.685824 430.640957 285.643678 433.768617 286.425287 436.244681 285.643678 438.460106 286.425287 440.154255 286.425287 440.154255 288.770115 441.718085 299.452107 450.840426 307.91954 454.489362 307.91954 454.489362 308.831418 455.010638 309.743295 456.835106 311.045977 464.132979 313 467.521277 313 467.521277 288.900383 471.300532 288.900383 471.300532 279.260536 472.734043 279.260536 472.734043 280.563218 477.034574 280.563218 477.034574 281.735632 480.031915 281.735632 480.031915 283.689655 485.505319 283.689655 485.505319 288.37931 499.319149 290.984674 506.87766 291.245211 508.180851 291.245211 508.180851 289.291188 508.441489 274.180077 510.265957 228.065134 516 220.249042 514.696809 217.122605 513.654255 216.210728 513.523936 216.210728 513.523936 215.559387 512.611702 214.386973 507.138298 213.8659 498.406915 213.8659 498.406915 219.337165 497.885638 219.337165 493.715426 227.022989 491.109043 227.022989 490.066489 223.636015 483.029255 220.900383 477.816489 220.37931 477.034574 219.858238 475.340426 213.214559 463.220745 211.911877 468.824468 211.911877 468.824468 211 471.56117 211 471.56117 211.781609 465.827128 212.563218 463.611702 220.509579 455.662234 228.716475 449.797872 235.360153 439.37234 241.091954 427.643617"></polygon>
                    <polygon id="06370" fill="#EBEBEB" points="99.620437 147.763158 101.854014 143.421053 104.218978 140.921053 105.927007 140 105.927007 140 110 151.578947 100.671532 156.052632 76.2335766 169.342105 74.2627737 170 74.2627737 170 74 169.210526 74 169.210526 74.2627737 167.5 76.2335766 165 85.5620434 160.526316 88.0583936 157.631579 91.0802913 152.631579 96.5985393 150.394737"></polygon>
                    <polygon id="31320" fill="#EBEBEB" points="261.526316 123 262.174089 123.391892 269.040486 127.702703 270.983806 129.009009 273.315789 135.801802 275 139.459459 275 143.378378 263.210526 149.648649 261.785425 150.432432 261.396761 150.693694 260.748988 150.954955 259.064777 152 251.680162 149.648649 249.348178 147.427928 245.072874 142.986486 243 135.40991 243 135.40991 244.165992 128.225225 244.165992 128.225225 260.230769 123.391892 261.267206 123 261.267206 123"></polygon>
                    <polygon id="38610" fill="#EBEBEB" points="212.032258 468.574074 213.322581 463 219.903226 475.055556 220.419355 476.740741 220.935484 477.518519 223.645161 482.703704 227 489.703704 227 490.740741 219.387097 493.333333 219.387097 497.481481 213.967742 498 213.967742 498 213.967742 497.87037 213.709677 495.407407 211.516129 486.851852 207.258065 473.888889 207.129032 473.5 207 473.5 207 473.5 208.16129 472.981481 209.451613 472.462963 211.129032 471.296296 211.129032 471.296296"></polygon>
                    <polygon id="29460" fill="#EBEBEB" points="195.057143 87.2944173 195.314286 86.7664985 195.314286 86.7664985 198.142857 87.6903564 204.828571 80.5634521 210.357143 77 209.328571 82.6751275 211 88.350255 211 88.350255 210.614286 91.9137071 208.171429 96.7969537 208.171429 96.7969537 203.285714 103 201.614286 102.340101 199.942857 100.756345 197.885714 102.208122 191.971429 102.86802 185.028571 102.86802 184 93.8934001 184 93.8934001 185.414286 88.4822347 189.142857 88.350255 191.842857 89.4060926 193.257143 89.2741129 194.542857 88.6142144"></polygon>
                    <polygon id="26550" fill="#EBEBEB" points="223.943182 116 215.1875 112.850678 209.960227 103.009049 208 96.8416272 208 96.8416272 210.482955 91.9864258 210.875 88.443439 210.875 88.443439 216.625 88.0497739 222.113636 87.6561087 224.465909 87 226.556818 95.3981882 227.994318 98.5475097 230.477273 101.696831 231 103.665157 230.738636 104.714931 229.039773 106.420814 226.034091 107.208144 224.335227 108.126696 225.119318 109.307692 224.988636 115.081448"></polygon>
                    <polygon id="13720" fill="#EBEBEB" points="237.816754 164 238.732984 164.516129 239.649215 165.16129 240.434555 165.548387 240.434555 165.548387 242.790576 165.548387 244.361257 165.290323 246.717277 164.774194 251.560209 165.419355 251.429319 168.129032 251.82199 168.129032 251.691099 170.967742 252.73822 170.967742 252.73822 170.967742 252.73822 172.645161 252.73822 173.677419 253 179.225806 249.727749 180.645161 249.989529 184.903226 248.157068 185.290323 247.895288 186.580645 244.884817 186.967742 244.884817 186.967742 238.340314 188 238.602094 180.258065 236.507853 180.258065 236.507853 180.258065 234.806283 180.129032 229.04712 179.483871 229.04712 179.483871 228.26178 179.354839 228.26178 179.354839 228 174.322581 228 174.322581 231.664921 173.806452 233.890052 173.677419 234.937173 165.935484 235.068063 165.032258 235.068063 164.258065"></polygon>
                    <polygon id="46260" fill="#EBEBEB" points="85.825 241 94.35625 241 100 253.564767 98.1625 256.673575 95.40625 262.11399 95.40625 262.11399 92.65 266 92.65 266 85.3 256.803109 81.8875 253.435233 81.23125 252.917098 80.575 252.658031 80.44375 252.528497 80.44375 252.528497 79 246.699482 79.91875 241 81.23125 241"></polygon>
                    <polygon id="09280" fill="#EBEBEB" points="308.047619 87.6086957 306.345238 88 305.297619 84.7391304 301.892857 84.2173913 297.571429 86.9565217 296 84.2173913 302.809524 80.173913 302.678571 78.8695652 298.095238 73.3913043 301.238095 69.8695652 300.583333 69.3478261 303.202381 67 303.071429 67.1304348 310.27381 71.3043478 310.27381 71.3043478 314.071429 73 318 80.4347826 317.869048 84.0869565"></polygon>
                    <polygon id="25350" fill="#EBEBEB" points="127 288.677419 126.867187 310.870968 110.398438 311 110.398438 311 110.398438 308.806452 111.0625 301.322581 110 289.451613 110 289.451613 120.625 288.032258 121.15625 287"></polygon>
                    <polygon id="23700" fill="#EBEBEB" points="293.16129 310.26087 293.419355 312.478261 293.935484 317.173913 295.225806 327.73913 295.483871 330.608696 296 334 291.225806 332.304348 288.258065 331.26087 282.064516 331.26087 281.290323 327.869565 280.774194 325.26087 280 323.434783 281.032258 317.956522 281.419355 310.913043 281.419355 310.913043 281.806452 310.913043 281.806452 310.913043 283.354839 310.391304 283.870968 310.26087 288.774194 311.826087 293.16129 310 293.16129 310"></polygon>
                    <polygon id="39630" fill="#EBEBEB" points="314.691429 162.477273 321 165.825758 320.605714 166.984848 320.08 170.075758 316.925714 171.106061 316.794286 171.234848 310.354286 173.55303 310.091429 176 307.725714 175.742424 304.045714 172.522727 299.708571 166.469697 299.314286 162.734848 299.182857 162.477273 298 159 310.485714 160.159091"></polygon>
                    <polygon id="70980" fill="#EBEBEB" points="179 433.533333 180.42446 432.066667 180.81295 431 187.546763 435.533333 191.172662 435.933333 193.633094 438.2 196.611511 439.533333 197 441.266667 196.482014 442.6 196.223022 444.066667 196.223022 445.4 195.964029 446.733333 195.316547 449 195.316547 449 193.374101 447.4 182.755396 442.2 182.107914 441.933333 179.776978 440.066667 179.129496 439.266667 179.129496 439.266667 179.129496 439.266667 179.129496 437.666667 179.129496 436.866667"></polygon>
                    <polygon id="path2745" points="262.066316 0 280.112799 15.045639 280.112799 15.045639 280.24357 15.1764707 280.24357 15.1764707 287.828324 21.5872212 287.828324 21.5872212 297.505423 30.091278 301.428572 33.6237324 302.213201 35.978702 302.213201 35.978702 313.45956 47.8843816 313.45956 47.8843816 313.851875 48.1460449 313.851875 48.1460449 315.551906 49.9776879 315.551906 49.9776879 315.682678 49.9776879 315.682678 49.9776879 316.205764 50.6318461 316.205764 50.6318461 318.559653 51.9401625 318.559653 51.9401625 318.951968 52.0709942 319.998141 52.0709942 319.998141 52.0709942 323.528975 51.5476676 323.528975 51.5476676 325.229006 51.8093309 325.359777 51.8093309 325.229006 51.8093309 325.359777 51.8093309 325.359777 51.8093309 327.975209 53.5101423 337.521537 52.855984 337.521537 52.855984 340.921599 52.3326575 344.452433 54.4259638 352.821816 56.2576068 352.952588 56.3884384 353.083359 56.5192701 354.521847 56.911765 361.060428 58.4817447 361.060428 58.4817447 365.768206 59.6592295 365.768206 59.6592295 379.760769 65.4158218 386.822436 70.5182559 386.822436 70.5182559 387.214751 70.7799192 387.214751 70.7799192 387.607065 71.8265724 387.607065 71.8265724 388.130152 74.0507103 391.660986 75.2281951 396.237992 77.7139963 396.89185 78.1064913 401.7304 77.9756596 401.7304 77.9756596 402.645801 77.844828 402.645801 77.844828 402.907344 77.844828 402.907344 77.844828 404.084289 78.3681546 404.738147 80.5922925 407.092036 83.0780937 406.56895 85.8255582 408.138209 93.413791 410.361326 94.3296125 411.669042 100.217036 410.099783 102.572006 407.222808 104.403649 407.092036 108.721093 404.738147 113.561864 404.345832 115.524339 406.307406 117.879308 409.707468 118.925961 409.184382 122.981742 407.092036 124.682554 406.438178 126.252534 405.392005 134.625759 404.607375 135.934075 398.591881 140.513183 398.984196 142.737321 399.899597 143.653142 400.291912 146.269775 401.599628 148.493913 408.138209 153.203852 408.138209 155.689653 405.392005 159.352939 404.21506 162.231236 404.21506 165.502027 405.653548 167.072006 405.130462 170.342797 403.953517 172.436104 401.207313 174.006083 401.599628 178.192696 402.776573 179.370181 410.230555 179.501012 413.238302 180.155171 415.199876 184.603447 419.253796 190.883365 422 191.406692 422 191.406692 415.592191 202.789045 413.761388 201.742392 412.322901 204.228193 412.322901 204.228193 409.315153 209.723122 409.315153 209.723122 408.268981 211.816428 408.268981 211.816428 407.092036 213.778903 406.830493 215.872209 406.830493 215.872209 408.399752 216.918863 408.399752 216.918863 405.130462 225.684583 405.130462 225.684583 403.822746 228.955374 403.822746 228.955374 406.438178 230.132859 414.022932 234.18864 414.022932 234.18864 412.453672 237.459431 412.453672 237.459431 409.969012 242.561865 409.969012 242.561865 409.05361 244.393508 408.268981 245.832656 405.653548 251.327585 405.653548 251.327585 402.776573 256.299187 402.776573 256.299187 400.684227 257.215009 400.684227 257.215009 388.522467 269.774847 385.253176 275.923934 385.253176 275.923934 385.122405 276.316429 383.030059 280.37221 381.330028 284.035496 372.56833 301.959431 361.191199 326.294117 361.191199 326.294117 357.006508 326.163285 353.214131 322.630831 353.214131 322.630831 352.429501 321.453346 352.429501 321.453346 348.506353 317.135902 348.506353 317.135902 341.706229 313.210952 341.706229 313.210952 354.521847 345.133873 354.521847 345.133873 359.752712 357.955374 363.283545 366.721095 363.283545 366.721095 380.022312 408.063894 380.806942 410.026369 380.806942 410.026369 384.076232 418.268762 384.076232 418.268762 376.491478 420.231237 350.467927 425.072008 338.175395 427.426977 338.175395 427.426977 332.813759 428.604462 332.813759 428.604462 335.167648 443.780933 335.167648 443.780933 335.29842 444.827586 335.29842 444.827586 335.559963 445.874239 335.559963 445.874239 336.213821 450.191683 336.213821 450.191683 338.306167 463.929006 323.398203 465.89148 323.398203 465.89148 321.828944 466.022312 313.721104 467.330629 289.528355 471.124746 289.528355 471.124746 279.851255 472.563894 279.851255 472.563894 281.158972 476.881339 281.158972 476.881339 282.335916 479.890466 282.335916 479.890466 284.29749 485.385395 284.29749 485.385395 289.005268 499.25355 291.620701 506.841785 291.882244 508.150101 291.882244 508.150101 289.92067 508.411765 274.751163 510.243408 228.458011 516 220.611714 514.691684 217.473196 513.64503 216.557794 513.514199 216.557794 513.514199 215.903936 512.598377 214.726992 507.103448 214.203905 498.337728 214.203905 498.206896 213.942362 495.721095 211.719245 487.086207 207.403781 474.003042 207.27301 473.610547 207.142238 473.610547 203.872948 465.498986 198.511312 452.023326 198.511312 451.892495 197.203595 449.537525 195.634336 448.36004 193.672762 446.790061 182.949489 441.687626 182.295631 441.425963 179.941742 439.59432 179.287884 438.80933 179.287884 438.80933 177.064767 436.323529 176.803224 436.323529 170.656958 434.361054 168.695383 434.884381 164.641463 437.370182 152.610475 441.1643 146.202666 442.472616 145.418036 442.341785 144.241092 442.210953 143.064147 441.94929 136.00248 438.678499 131.556245 435.015213 130.379301 433.052738 129.986986 432.791075 129.725442 432.529411 128.67927 431.61359 127.502325 430.566937 127.11001 430.436105 125.017664 429.781947 120.440658 428.342799 119.132942 427.950304 118.740627 427.426977 116.779053 425.595334 114.555935 420.100405 113.378991 407.933062 109.455842 390.794117 106.84041 382.944218 106.84041 381.50507 109.586614 371.561865 108.932756 367.375253 109.194299 362.534482 112.202046 357.955374 114.032849 352.722109 114.294392 346.965516 113.902077 340.816429 113.509762 338.853954 111.417417 325.901622 110.763558 318.967545 110.89433 310.986814 110.89433 308.762676 111.548188 301.174441 110.502015 289.13793 109.717386 285.605476 108.540441 282.596348 100.040285 275.662271 92.7170744 266.373224 85.393864 257.084177 81.993802 253.682554 81.339944 253.159228 80.6860859 252.897565 80.5553143 252.766733 72.3167026 249.757605 66.8242948 246.879309 62.5088315 246.094319 50.0855282 243.870181 45.6392933 244.393508 40.9315152 246.879309 39.8853423 247.925962 31.3851874 255.906692 31.1236442 256.037524 27.5928106 257.34584 22.6234892 257.215009 16.8695382 256.168356 11.2463588 253.944218 10.2001859 253.551723 9.41555622 252.897565 8.23861169 251.981743 7.06166716 251.065922 6.66935232 250.673427 2.35388905 245.570993 0.784629685 243.216023 0.130771614 240.468558 0.130771614 240.076064 0.130771614 240.076064 0.130771614 240.076064 0 239.291074 0.392314842 236.674441 3.66160519 231.04868 4.18469165 227.254562 4.18469165 226.992899 4.18469165 226.469573 3.92314842 224.899593 3.92314842 224.899593 5.10009295 224.63793 8.23861169 224.376266 11.7694453 222.413792 14.5156492 218.096347 16.607995 217.442189 18.308026 211.685597 19.3541989 209.984785 22.4927176 208.283974 27.462039 202.658213 28.9005267 198.602432 28.2466686 195.9858 28.6389835 195.20081 35.4391074 190.621702 37.4006816 192.191682 39.1007126 192.06085 40.8007436 189.182554 40.1468855 185.780931 42.2392314 182.640972 51.3932443 180.809329 51.3932443 180.809329 55.3163928 178.716023 57.0164237 176.753548 60.5472573 175.3144 60.5472573 175.3144 60.6780289 175.183568 63.6857761 173.875252 64.0780909 174.006083 64.0780909 174.006083 65.5165787 174.006083 65.5165787 174.006083 66.5627516 173.74442 69.1781839 173.221094 73.2321039 170.996956 74.53982 169.426976 74.2782768 168.641986 74.53982 166.941175 76.5013942 164.455373 85.7861788 160.007098 88.2708395 157.128801 91.2785866 152.157199 96.7709944 149.933061 99.7787416 147.316428 102.001859 142.998984 104.355749 140.513183 106.05578 139.597361 114.294392 136.064907 116.125195 132.139957 119.263713 128.999998 125.540751 124.682554 126.848467 124.290059 130.640844 125.20588 134.825535 119.841783 139.27177 119.187625 148.556555 110.02941 159.541371 107.281945 163.726062 108.721093 167.649211 104.796144 168.041525 104.403649 174.580106 97.7312352 177.457082 96.1612555 181.903317 94.852939 181.903317 94.852939 183.734119 94.0679492 185.172607 88.7038544 188.964984 88.5730228 191.711188 89.6196759 193.149675 89.4888443 194.457391 88.834686 194.980478 87.5263696 194.980478 87.5263696 195.242021 87.003043 195.242021 87.003043 198.903626 77.452333 198.903626 77.452333 202.042145 74.3123736 203.611404 71.4340774 209.365355 68.4249496 211.32693 64.5000003 215.773165 58.3509131 215.773165 58.3509131 217.734739 56.3884384 217.734739 56.3884384 219.957856 52.2018258 219.957856 52.2018258 220.742486 51.2860043 220.742486 51.2860043 225.581036 45.3985804 226.75798 43.3052741 226.75798 43.3052741 227.281067 41.6044627 227.281067 41.6044627 230.288814 38.0720083 231.858073 36.7636919 233.950419 35.8478704 239.835142 29.9604464 240.619771 26.820487 243.104432 23.8113591 249.250698 19.4939149 250.558414 17.0081137 249.904556 7.84989862"></polygon>
                </g>
            </g>
        </g>
    </g>
</svg>